<svg width="77" height="42" viewBox="0 0 77 42" fill="none" xmlns="http://www.w3.org/2000/svg">
<path d="M58.3656 7.69533C58.1541 6.73536 57.845 5.873 57.8124 5.01065C57.7799 4.16457 58.3494 3.49747 59.0815 3.04189C60.188 2.35851 61.2781 1.67514 62.4008 1.04058C63.8489 0.210769 65.4272 0.584998 66.2895 2.01683C69.4135 7.14213 72.5375 12.2837 75.6289 17.4253C76.475 18.8246 76.1008 20.3703 74.7341 21.2814C73.7253 21.9485 72.6839 22.5994 71.6589 23.2339C70.1131 24.1776 68.5674 23.8197 67.5912 22.2902C67.4122 22.0136 67.2495 21.737 67.038 21.4116C63.9953 23.0387 60.9852 24.6495 57.9101 26.2766C58.3982 27.627 58.3168 28.9124 57.5033 30.1165C56.6897 31.3205 55.5833 31.9714 54.1515 31.9714C53.4844 35.5509 52.5244 36.3319 48.9611 36.2831C47.7571 39.2281 45.7883 39.9929 43.1199 38.561C42.5342 40.123 41.4603 41.1481 39.7519 41.3596C38.4827 41.5223 37.3601 41.0667 36.3024 40.4159C35.5865 39.9766 34.9032 39.5047 34.171 39.0166C33.7479 39.3746 33.3574 39.7162 32.9507 40.0579C30.8517 41.864 28.346 41.4898 26.8817 39.1305C26.784 38.9841 26.7027 38.8214 26.6864 38.8051C25.7427 38.9515 24.8478 39.2769 23.9855 39.1956C22.2282 39.0491 20.8127 37.5197 20.5198 35.7462C20.4872 35.5509 20.3408 35.258 20.1781 35.193C18.0954 34.3469 17.3633 33.4683 16.9728 31.2717C14.3043 30.7185 12.2542 27.4806 14.6623 24.6007C12.7423 23.299 10.8224 21.9974 8.85363 20.6632C8.69092 20.8909 8.56076 21.0862 8.41432 21.2977C7.51943 22.6156 5.9737 22.9736 4.60695 22.1601C3.53308 21.5255 2.49175 20.8584 1.45042 20.175C-0.0464905 19.1988 -0.388177 17.588 0.604341 16.0748C2.687 12.8857 4.78593 9.72918 6.88486 6.55638C7.84484 5.09201 8.80482 3.62764 9.78106 2.17953C10.8061 0.682622 12.303 0.340936 13.8813 1.26837C14.8413 1.83785 15.785 2.4236 16.745 3.00935C18.5673 4.13203 18.909 5.66148 17.7212 7.45127C17.6399 7.58144 17.5748 7.7116 17.4771 7.87431C18.6649 8.52514 19.8039 9.17597 20.9754 9.76172C21.1869 9.87562 21.5611 9.77799 21.8214 9.68037C24.0994 8.85056 26.3935 8.03702 28.6552 7.12585C31.5839 5.93809 34.2523 6.39367 36.758 8.23227C37.3763 8.68785 37.9946 9.12716 38.5641 9.63156C38.922 9.9407 39.2149 9.98951 39.638 9.71291C40.2725 9.28987 40.9559 8.94818 41.5905 8.52514C44.8283 6.45875 48.2127 6.36113 51.6946 7.72787C52.5895 8.06956 53.4193 8.59023 54.2817 8.99699C54.4932 9.09462 54.7861 9.20852 54.965 9.12716C56.1853 8.63904 57.3894 8.1021 58.3656 7.67906V7.69533ZM36.8557 11.3563C36.335 10.9495 35.8957 10.6241 35.4564 10.2824C33.6015 8.86683 31.6327 8.4926 29.4036 9.42004C27.0281 10.4126 24.5712 11.2261 22.1631 12.1698C21.3984 12.4627 20.7313 12.4627 20.0154 12.0234C18.73 11.2586 17.4121 10.5753 16.0453 9.84308C14.0766 12.7881 12.1241 15.6843 10.1553 18.613C12.3681 20.1099 14.4996 21.5418 16.6311 22.9899C19.4459 20.0286 22.7326 21.4441 23.8228 24.4705C26.3773 24.5193 27.4023 25.2841 28.346 27.806C28.4111 27.9687 28.6389 28.1152 28.8179 28.164C30.6402 28.5382 31.6653 29.6934 32.1534 31.4181C32.2185 31.6459 32.4788 31.9063 32.6903 31.9714C34.8543 32.5083 36.1235 34.3794 35.8306 36.5923C35.7981 36.7875 35.8143 37.1292 35.9282 37.2105C36.8394 37.7963 37.7505 38.4146 38.7431 38.8539C39.5729 39.2119 40.3213 38.8539 40.6793 38.138C41.0535 37.4383 40.8908 36.8689 40.1098 36.2343C39.4753 35.7136 38.8244 35.2418 38.1899 34.7374C37.5228 34.2167 37.3926 33.452 37.8319 32.8825C38.2549 32.3293 38.9871 32.2642 39.6542 32.7361C39.8332 32.8662 40.0122 33.0127 40.1912 33.1428C41.623 34.2655 43.0548 35.4045 44.5192 36.5109C45.3978 37.178 46.2927 36.8363 46.553 35.7787C46.6995 35.1604 46.5856 34.6886 45.9836 34.2981C44.4541 33.3056 42.9572 32.248 41.4603 31.2066C40.9884 30.8812 40.6467 30.3768 40.8908 29.8561C41.0861 29.4656 41.5416 29.0752 41.9484 28.945C42.2413 28.8474 42.7294 29.0914 43.0386 29.3029C45.1049 30.7185 47.1551 32.1829 49.2052 33.5984C50.035 34.1679 50.8323 34.0377 51.3204 33.3056C51.8736 32.4595 51.7109 31.4344 50.8973 30.93C49.2052 29.8561 47.4967 28.8148 45.8371 27.7084C45.528 27.4969 45.1375 27.1389 45.1212 26.8135C45.0887 26.4067 45.2677 25.8535 45.5443 25.5607C45.9673 25.1051 46.5693 25.2515 47.0737 25.5607C48.896 26.7159 50.7184 27.8711 52.5407 28.9938C52.8824 29.2053 53.2566 29.368 53.6471 29.4656C54.6396 29.6934 55.2742 29.3518 55.6647 28.4243C55.9576 27.7247 55.7298 27.1877 54.8511 26.6345C51.4506 24.4705 48.0337 22.3228 44.6494 20.1425C44.1775 19.8333 43.8358 19.8496 43.3477 20.1099C39.8495 22.0299 36.2699 22.2414 32.6253 20.5493C31.2585 19.9147 30.445 18.8896 30.3962 17.3765C30.3473 15.8958 31.0633 14.8219 32.3324 14.0735C33.813 13.1949 35.2937 12.3162 36.8719 11.3725L36.8557 11.3563ZM59.9927 9.64783C58.3819 10.3312 56.8525 10.982 55.323 11.6654C54.7047 11.942 54.2003 11.8607 53.6146 11.5027C52.6709 10.9332 51.6946 10.3637 50.6533 9.97324C47.9198 8.91564 45.2839 9.07835 42.7294 10.6892C39.7519 12.5603 36.6929 14.3338 33.6666 16.1236C33.1785 16.4165 32.788 16.7256 32.8205 17.3602C32.853 17.9785 33.3086 18.2063 33.7805 18.4178C36.9858 19.8496 40.0122 19.4103 42.8921 17.5554C43.6894 17.0348 44.3077 17.0348 45.1049 17.5554C48.5544 19.7845 52.0363 21.9485 55.502 24.1614C55.925 24.438 56.2342 24.438 56.6735 24.2102C59.1466 22.8597 61.6361 21.558 64.1092 20.2238C64.6136 19.9472 65.118 19.6706 65.6712 19.3778C63.7675 16.1399 61.9127 12.9508 59.9927 9.68037V9.64783ZM63.9465 3.00935C63.7675 3.07443 63.7025 3.0907 63.6374 3.12324C62.5798 3.77407 61.5059 4.40863 60.4483 5.05946C60.0903 5.27098 60.1717 5.53132 60.3832 5.82419C60.8713 6.52384 61.3757 7.23975 61.815 7.97194C64.4021 12.2512 66.9729 16.5141 69.5111 20.8096C69.8365 21.3465 70.1131 21.3628 70.6013 21.0374C71.4148 20.4842 72.2609 19.9472 73.107 19.4591C73.6276 19.15 73.6765 18.8408 73.3673 18.3527C72.6514 17.2137 71.968 16.0585 71.2684 14.9033C68.9905 11.1285 66.6963 7.35365 64.4021 3.59509C64.2719 3.38357 64.0767 3.18832 63.9302 3.00935H63.9465ZM15.964 5.64521C16.0453 5.56386 16.1104 5.46623 16.1918 5.38488C15.9965 5.3198 15.785 5.27098 15.6223 5.17336C14.6298 4.57134 13.621 3.96932 12.6447 3.35103C12.2217 3.0907 12.0102 3.28595 11.7824 3.62764C8.77228 8.18346 5.74591 12.7555 2.71954 17.3114C2.45921 17.7019 2.45921 17.9785 2.88225 18.2388C3.80969 18.8083 4.73712 19.3778 5.64829 19.9798C6.07133 20.2564 6.33166 20.1425 6.55945 19.7357C6.86859 19.1825 7.17774 18.6293 7.5357 18.1086C10.2366 14.1223 12.9376 10.1522 15.6385 6.16588C15.7524 6.00317 15.8501 5.82419 15.964 5.66148V5.64521ZM29.908 31.9714C29.5175 31.5158 29.2084 31.0276 28.7691 30.7185C28.2809 30.3931 27.7766 30.5883 27.321 30.9951C26.0681 32.1015 24.799 33.1917 23.5462 34.2818C22.814 34.9164 22.7652 35.5509 23.3672 36.2506C24.0017 36.9828 24.6363 37.0641 25.401 36.4133C26.7027 35.2906 28.0043 34.1516 29.2735 32.9964C29.5175 32.7849 29.6314 32.4269 29.908 31.9714ZM26.0844 28.2942C25.6614 27.8223 25.3685 27.2691 24.9129 27.0413C24.5875 26.8786 23.9204 26.9925 23.6112 27.2366C22.3421 28.2453 21.1381 29.3355 19.934 30.4094C19.3157 30.9626 19.3483 31.5971 19.934 32.2805C20.5035 32.9313 21.1543 33.029 21.7889 32.492C23.0092 31.4507 24.2133 30.4094 25.401 29.3518C25.6614 29.124 25.8078 28.7497 26.0844 28.3104V28.2942ZM21.5774 25.2352C21.1869 24.7634 20.9103 24.2427 20.4872 23.9987C20.1781 23.8197 19.5273 23.836 19.2507 24.0475C18.2419 24.7959 17.2819 25.642 16.3707 26.5206C15.8175 27.0576 15.9314 27.7572 16.566 28.3918C17.1029 28.945 17.7375 29.0101 18.307 28.5219C19.1856 27.7898 20.0479 27.0576 20.8777 26.2766C21.1381 26.0325 21.2845 25.6746 21.5774 25.2515V25.2352ZM33.634 35.7624C33.2435 35.3231 32.9507 34.8187 32.5114 34.4933C32.072 34.1679 31.5514 34.3143 31.1283 34.6886C30.5263 35.2255 29.8918 35.7299 29.2897 36.2831C28.6552 36.8689 28.6389 37.4709 29.2084 38.138C29.7616 38.8051 30.445 38.9515 31.0633 38.4634C31.7466 37.9427 32.3812 37.357 32.9995 36.7712C33.2435 36.5434 33.3574 36.1855 33.634 35.7462V35.7624Z" fill="#FF5C00"/>
</svg>
