<svg width="51" height="52" viewBox="0 0 51 52" fill="none" xmlns="http://www.w3.org/2000/svg">
<mask id="path-1-inside-1_962_8095" fill="white">
<path d="M38.7921 51.3461H12.0364V39.3553C13.6047 39.3553 15.1056 39.3778 16.6051 39.35C19.0151 39.305 20.9488 37.3158 20.9527 34.9123C20.9554 33.5994 20.295 32.5737 19.444 31.6737C18.2078 30.3674 16.9121 29.1181 15.6588 27.8277C15.4113 27.5735 15.1664 27.4465 14.8104 27.4213C7.83033 26.9264 2.25975 21.9553 0.605388 15.7124C0.352601 14.7608 0.229517 13.7761 0.046875 12.806C0.046875 10.7255 0.046875 8.64497 0.046875 6.56444H9.03867V3.58394H6.12832V0.648438H44.7028V3.61835H41.7911V6.58032H50.7763C50.7763 8.40012 50.7975 10.1643 50.771 11.9286C50.7366 14.2566 50.231 16.4906 49.1524 18.5526C46.3598 23.8929 41.9526 26.8721 35.9347 27.4465C35.7123 27.4677 35.4556 27.5749 35.2954 27.7271C34.4576 28.5225 33.6291 29.3298 32.8284 30.1636C32.1098 30.9127 31.3832 31.6631 30.7466 32.481C28.6806 35.1267 30.5322 38.8179 33.5299 39.2507C34.7607 39.4281 36.0326 39.3341 37.2846 39.3579C37.7743 39.3672 38.264 39.3592 38.7894 39.3592V51.3474L38.7921 51.3461ZM28.3736 39.3354C27.4723 38.0741 26.9984 36.7559 26.9124 35.3041C26.7867 33.1944 27.6192 31.4275 28.9877 29.9095C30.1139 28.6601 31.3051 27.465 32.5227 26.303C36.791 22.2319 38.7881 17.2225 38.7894 11.3687C38.7894 8.92555 38.7921 6.48239 38.7894 4.0379C38.7894 3.89628 38.7709 3.75467 38.7616 3.61438H12.0946C12.0708 3.666 12.0456 3.69379 12.047 3.72291C12.1065 7.23678 12.0337 10.7586 12.2653 14.2605C12.4943 17.7016 13.741 20.8608 15.9248 23.562C17.0934 25.0073 18.446 26.3043 19.7126 27.6715C20.598 28.627 21.5576 29.527 22.3437 30.5593C24.3925 33.2473 24.456 36.2398 22.6309 39.0813C22.5846 39.1541 22.5595 39.2414 22.5198 39.3341H28.3722L28.3736 39.3354ZM35.797 42.3649H15.05V48.3484H35.797V42.3649ZM38.2931 23.9697C40.1685 23.8598 43.5024 21.6205 45.2084 19.3639C47.412 16.4483 48.0565 13.1329 47.7627 9.57671H41.7514C41.9036 14.7039 41.1307 19.5783 38.2931 23.9697ZM12.5605 24.0014C9.68718 19.5624 8.92353 14.6708 9.07441 9.57406H3.04723C2.50724 16.5343 6.77418 23.0512 12.5592 24.0014H12.5605Z"/>
</mask>
<path d="M38.7921 51.3461H12.0364V39.3553C13.6047 39.3553 15.1056 39.3778 16.6051 39.35C19.0151 39.305 20.9488 37.3158 20.9527 34.9123C20.9554 33.5994 20.295 32.5737 19.444 31.6737C18.2078 30.3674 16.9121 29.1181 15.6588 27.8277C15.4113 27.5735 15.1664 27.4465 14.8104 27.4213C7.83033 26.9264 2.25975 21.9553 0.605388 15.7124C0.352601 14.7608 0.229517 13.7761 0.046875 12.806C0.046875 10.7255 0.046875 8.64497 0.046875 6.56444H9.03867V3.58394H6.12832V0.648438H44.7028V3.61835H41.7911V6.58032H50.7763C50.7763 8.40012 50.7975 10.1643 50.771 11.9286C50.7366 14.2566 50.231 16.4906 49.1524 18.5526C46.3598 23.8929 41.9526 26.8721 35.9347 27.4465C35.7123 27.4677 35.4556 27.5749 35.2954 27.7271C34.4576 28.5225 33.6291 29.3298 32.8284 30.1636C32.1098 30.9127 31.3832 31.6631 30.7466 32.481C28.6806 35.1267 30.5322 38.8179 33.5299 39.2507C34.7607 39.4281 36.0326 39.3341 37.2846 39.3579C37.7743 39.3672 38.264 39.3592 38.7894 39.3592V51.3474L38.7921 51.3461ZM28.3736 39.3354C27.4723 38.0741 26.9984 36.7559 26.9124 35.3041C26.7867 33.1944 27.6192 31.4275 28.9877 29.9095C30.1139 28.6601 31.3051 27.465 32.5227 26.303C36.791 22.2319 38.7881 17.2225 38.7894 11.3687C38.7894 8.92555 38.7921 6.48239 38.7894 4.0379C38.7894 3.89628 38.7709 3.75467 38.7616 3.61438H12.0946C12.0708 3.666 12.0456 3.69379 12.047 3.72291C12.1065 7.23678 12.0337 10.7586 12.2653 14.2605C12.4943 17.7016 13.741 20.8608 15.9248 23.562C17.0934 25.0073 18.446 26.3043 19.7126 27.6715C20.598 28.627 21.5576 29.527 22.3437 30.5593C24.3925 33.2473 24.456 36.2398 22.6309 39.0813C22.5846 39.1541 22.5595 39.2414 22.5198 39.3341H28.3722L28.3736 39.3354ZM35.797 42.3649H15.05V48.3484H35.797V42.3649ZM38.2931 23.9697C40.1685 23.8598 43.5024 21.6205 45.2084 19.3639C47.412 16.4483 48.0565 13.1329 47.7627 9.57671H41.7514C41.9036 14.7039 41.1307 19.5783 38.2931 23.9697ZM12.5605 24.0014C9.68718 19.5624 8.92353 14.6708 9.07441 9.57406H3.04723C2.50724 16.5343 6.77418 23.0512 12.5592 24.0014H12.5605Z" fill="#FF5C00" stroke="#FAF6F6" stroke-width="0.8" stroke-linejoin="round" mask="url(#path-1-inside-1_962_8095)"/>
<mask id="path-2-inside-2_962_8095" fill="white">
<path d="M29.8452 21.5043H20.9924V18.5648H23.9027V11.7554C22.971 12.2107 22.03 12.5191 20.9805 12.5072V9.57696C22.8545 9.26859 23.6301 8.49435 23.9702 6.58984H26.8766V18.541H29.8439V21.5056L29.8452 21.5043Z"/>
</mask>
<path d="M29.8452 21.5043H20.9924V18.5648H23.9027V11.7554C22.971 12.2107 22.03 12.5191 20.9805 12.5072V9.57696C22.8545 9.26859 23.6301 8.49435 23.9702 6.58984H26.8766V18.541H29.8439V21.5056L29.8452 21.5043Z" fill="#FF5C00" stroke="#FAF6F6" stroke-linejoin="round" mask="url(#path-2-inside-2_962_8095)"/>
</svg>
