<svg width="46" height="50" viewBox="0 0 46 50" fill="none" xmlns="http://www.w3.org/2000/svg">
<path d="M13.3127 43.4124C15.7309 44.0193 18.0923 44.1904 20.4702 43.9971C25.9841 43.5473 30.8014 41.4336 34.8561 37.6044L34.8561 37.6044C38.3684 34.2888 40.7764 30.2568 41.6935 25.5002C42.2088 22.8226 42.2621 20.0228 42.2758 17.2635C42.2846 15.487 42.111 13.7115 41.9366 11.9279C41.8751 11.2989 41.8135 10.6689 41.7597 10.0376C41.7414 9.82304 41.7212 9.66784 41.6904 9.55326C41.6599 9.44023 41.6231 9.38251 41.5822 9.34793C41.541 9.31303 41.4766 9.28554 41.3577 9.27238C41.2376 9.25908 41.079 9.26202 40.8624 9.27458L40.8624 9.27458C27.1717 10.0655 17.3283 16.762 11.2309 29.1633L11.2309 29.1634C9.78563 32.1021 8.94947 35.2623 8.51661 38.5308C8.45467 39.0002 8.28889 39.3766 8.02843 39.6222C7.76401 39.8717 7.41664 39.9722 7.02817 39.9131L7.02811 39.9131C6.63981 39.8538 6.33765 39.6515 6.15888 39.3345C5.98253 39.0218 5.93506 38.6137 6.01697 38.152L6.01698 38.1519C6.10047 37.6824 6.19001 37.2171 6.2793 36.7532C6.42218 36.0108 6.56441 35.2718 6.68014 34.5242C6.69681 34.4165 6.68666 34.2773 6.65059 34.1401C6.61439 34.0023 6.55611 33.8817 6.48939 33.8046C2.11166 28.7894 0.127862 22.9241 0.583889 16.2639L0.583891 16.2639C0.960934 10.7734 3.08815 6.0043 6.78279 1.973L6.7828 1.97299C7.75495 0.912436 9.15636 0.75113 10.4164 1.54148C14.6931 4.22127 17.3868 8.06148 18.5125 13.0258C18.5768 13.3069 18.6202 13.5933 18.6626 13.8732C18.6719 13.935 18.6812 13.9965 18.6907 14.0575C18.7304 14.3117 18.7663 14.5682 18.8067 14.8568C18.8109 14.887 18.8152 14.9177 18.8195 14.9487C18.8319 14.9418 18.8439 14.9352 18.8552 14.9288C18.9239 14.8901 18.9807 14.8551 19.0298 14.8154L19.1241 14.932L19.0293 14.8158C24.151 10.6407 29.9715 8.05976 36.466 7.08469C38.0315 6.84927 39.6245 6.7693 41.1997 6.70168L41.2061 6.85154L41.1997 6.70168C42.7433 6.63572 43.9126 7.66977 44.1613 9.21896L44.1613 9.21911C45.0461 14.7641 45.1598 20.342 44.1969 25.8716C43.5008 29.8694 41.7076 33.4699 39.1534 36.6065C33.2934 43.8052 25.7181 47.1226 16.5395 46.5002L16.5395 46.5002C15.063 46.3996 13.5967 46.043 12.1527 45.6918C11.7895 45.6035 11.4277 45.5155 11.0676 45.432C10.81 45.3723 10.5935 45.3545 10.3866 45.3783C10.18 45.4021 9.97528 45.4682 9.74261 45.5861L9.7424 45.5862C7.52941 46.7035 5.30218 47.7899 3.04888 48.8226L3.04872 48.8227C2.83988 48.9181 2.57467 48.9576 2.32047 48.9495C2.06676 48.9415 1.8051 48.8853 1.60547 48.7716C1.60539 48.7716 1.60531 48.7715 1.60523 48.7715L1.6795 48.6412C0.906308 48.2025 1.10303 47.091 1.98056 46.6922L13.3127 43.4124ZM13.3127 43.4124C13.333 43.3978 13.3529 43.3834 13.3725 43.3692C13.5413 43.2471 13.6892 43.1401 13.8402 43.0352L13.8402 43.0351C20.5811 38.3458 26.0118 32.4198 30.1504 25.276L30.1508 25.2752C30.1675 25.246 30.1854 25.2157 30.2039 25.1844C30.2624 25.0852 30.3266 24.9765 30.3755 24.8632M28.2174 23.5837C28.0736 23.783 27.9471 24.002 27.8252 24.213C27.7736 24.3024 27.7227 24.3904 27.6718 24.4748L27.6717 24.475C22.2295 33.5161 14.8219 40.3662 5.42275 44.9918L5.42271 44.9918C4.72022 45.3377 4.00566 45.6455 3.28668 45.9552C2.83175 46.1512 2.37504 46.3479 1.9185 46.5556L28.3391 23.6714M28.2174 23.5837L28.3391 23.6714M28.2174 23.5837C28.2173 23.5838 28.2172 23.5839 28.2171 23.584L28.3391 23.6714M28.2174 23.5837C28.4223 23.298 28.69 23.1136 28.9863 23.0473C29.2829 22.981 29.5953 23.0359 29.883 23.2059L29.8833 23.2061C30.4536 23.5446 30.6507 24.2266 30.3755 24.8632M28.3391 23.6714C28.712 23.1512 29.2901 23.0299 29.8067 23.335C30.3062 23.6316 30.4859 24.2298 30.2378 24.8037M30.3755 24.8632C30.3755 24.8632 30.3755 24.8632 30.3755 24.8632L30.2378 24.8037M30.3755 24.8632L30.2378 24.8037M30.2378 24.8037C30.193 24.9075 30.1358 25.0044 30.0783 25.1019C30.059 25.1347 30.0395 25.1676 30.0206 25.2008" fill="#FF5C00" stroke="#FF5C00" stroke-width="0.3"/>
</svg>
