<svg width="51" height="58" viewBox="0 0 51 58" fill="none" xmlns="http://www.w3.org/2000/svg">
<mask id="path-1-outside-1_962_8089" maskUnits="userSpaceOnUse" x="0.402344" y="0" width="51" height="58" fill="black">
<rect fill="white" x="0.402344" width="51" height="58"/>
<path d="M44.3172 40.1074C46.0382 43.0611 47.7359 45.9682 49.4104 48.8753C49.55 49.1079 49.6895 49.3404 49.7128 49.5963C49.829 50.3172 49.1313 50.8056 48.3406 50.5731C45.9684 49.9451 43.6194 49.3172 41.2472 48.666C41.1077 48.6195 40.9682 48.5962 40.7589 48.5497C40.5961 49.1776 40.41 49.7823 40.2472 50.387C39.7588 52.2476 39.2472 54.1081 38.7588 55.9687C38.6192 56.4803 38.4099 56.9454 37.8285 56.992C37.2471 57.0385 36.9912 56.6431 36.7354 56.2012C35.247 53.5965 33.7585 51.0149 32.2468 48.4334C32.1073 48.2008 31.8049 48.0148 31.5491 47.8985C30.8049 47.5962 30.0374 47.3636 29.2932 47.0613C28.642 46.8054 28.0141 46.4798 27.3629 46.2008C26.4093 45.7821 25.4558 45.7821 24.5023 46.2008C23.3859 46.6892 22.2929 47.3171 21.1068 47.6194C20.0835 47.8753 19.5485 48.4334 19.0602 49.3172C17.781 51.6429 16.4321 53.9221 15.1065 56.2245C14.8507 56.6664 14.5716 57.0617 13.9901 56.992C13.4087 56.9222 13.1994 56.4571 13.0599 55.9454C12.4087 53.5034 11.7575 51.0615 11.083 48.573C10.9202 48.5962 10.7574 48.5962 10.6179 48.6427C8.26895 49.2707 5.92 49.8986 3.57105 50.5265C3.08266 50.6661 2.64077 50.6893 2.31518 50.2707C1.94307 49.8288 2.08261 49.387 2.36169 48.9218C3.96642 46.1775 5.54789 43.4332 7.12936 40.6889C7.24564 40.5028 7.33867 40.3168 7.47821 40.0609C5.40835 38.9446 5.22229 37.084 5.45486 35.0607C5.54789 34.2932 5.61766 33.549 5.71069 32.7815C5.85023 31.6187 5.54789 30.5954 4.7339 29.7349C4.03619 29.0139 3.36174 28.2697 2.71054 27.5022C0.966277 25.3858 0.966277 23.595 2.71054 21.4787C3.33848 20.7112 4.01293 19.9902 4.68738 19.2925C5.5944 18.3622 5.85023 17.2692 5.68743 16.0133C5.54789 14.8737 5.40835 13.7341 5.38509 12.5945C5.33858 10.5479 6.29211 9.24552 8.24569 8.64084C9.43179 8.26873 10.6644 8.05942 11.8738 7.8036C12.9901 7.57103 13.8041 6.96635 14.3623 5.98956C14.9669 4.89648 15.5716 3.80341 16.2693 2.7801C17.2926 1.29166 18.7346 0.68698 20.5253 1.17538C21.0835 1.33817 21.6184 1.54749 22.1533 1.78005C22.8743 2.08239 23.5952 2.40799 24.293 2.73359C25.3395 3.22198 26.3861 3.22198 27.4326 2.73359C28.0373 2.45451 28.642 2.19868 29.2467 1.9196C29.549 1.78005 29.8746 1.64051 30.177 1.50097C32.7352 0.477668 34.3865 0.98932 35.8749 3.33827C36.4331 4.19877 36.9215 5.10579 37.4099 5.98956C37.9448 6.96635 38.7588 7.54777 39.8518 7.78034C41.0612 8.03616 42.2473 8.24548 43.4334 8.61759C45.5033 9.24552 46.4103 10.4781 46.3638 12.641C46.3638 13.8736 46.1777 15.1295 46.0614 16.3621C45.9451 17.432 46.2242 18.339 46.9452 19.1297C47.6894 19.9204 48.4336 20.7112 49.1081 21.5717C50.7593 23.6416 50.7593 25.3858 49.1081 27.4557C48.6429 28.0371 48.1778 28.6185 47.6196 29.1069C46.1777 30.3861 45.7823 31.9443 46.1545 33.8048C46.294 34.5258 46.3405 35.27 46.387 36.0142C46.5033 37.7585 45.9917 39.2004 44.2939 40.0842L44.3172 40.1074ZM44.48 13.2922C44.5497 11.3619 44.1776 10.8503 42.5264 10.4084C41.8519 10.2223 41.1542 10.0595 40.4565 9.96649C38.0611 9.64089 36.34 8.43153 35.2702 6.24538C34.8981 5.4779 34.433 4.73368 33.9446 4.03598C33.2236 2.98941 32.5957 2.80336 31.3863 3.22198C30.456 3.54758 29.5723 3.9662 28.6885 4.38483C26.7814 5.31511 24.9209 5.31511 23.0138 4.38483C22.1998 3.98946 21.3858 3.59409 20.5486 3.29175C19.1764 2.75685 18.4787 2.96616 17.6647 4.19877C17.1298 4.98951 16.6647 5.8035 16.2461 6.64075C15.2925 8.5013 13.8041 9.54786 11.7342 9.89672C10.7807 10.0595 9.82716 10.2456 8.92014 10.5014C7.64101 10.8735 7.24564 11.4317 7.2689 12.7341C7.2689 13.5481 7.33867 14.3853 7.47821 15.1993C7.87358 17.525 7.36193 19.5251 5.5944 21.1763C5.01298 21.7112 4.50133 22.3159 4.01293 22.9206C3.01288 24.1765 3.01288 24.9672 4.01293 26.1998C4.66413 26.9905 5.36183 27.7348 6.05954 28.479C7.22239 29.7349 7.73404 31.2 7.54798 32.8978C7.4317 34.0839 7.29216 35.2467 7.24564 36.4329C7.19913 37.6887 7.5945 38.1771 8.7806 38.5492C9.66436 38.8051 10.5714 39.0144 11.4784 39.1539C13.6878 39.5028 15.3158 40.5958 16.2926 42.6192C16.4786 42.9913 16.6879 43.3634 16.8973 43.7355C17.2229 44.2704 17.5485 44.8053 17.9206 45.2937C18.4555 46.0147 19.1997 46.2473 20.0602 45.9449C20.9905 45.5961 21.944 45.224 22.8278 44.7821C24.8279 43.782 26.7814 43.7588 28.7815 44.7821C29.5955 45.1775 30.4095 45.5728 31.27 45.8752C32.5259 46.3403 33.2236 46.131 33.9678 45.0147C34.4795 44.2704 34.9446 43.503 35.34 42.689C36.3633 40.5958 38.0378 39.5028 40.317 39.1539C41.2705 39.0144 42.2008 38.7585 43.1311 38.4795C43.9916 38.2236 44.4567 37.5724 44.4334 36.6654C44.3869 35.7351 44.3637 34.7816 44.2241 33.8513C43.8753 31.6187 44.3172 29.6651 46.0149 28.0604C46.6428 27.4557 47.2475 26.7812 47.7824 26.0835C48.6662 24.9439 48.6662 24.1765 47.8057 23.0369C47.5499 22.688 47.2708 22.3857 46.9917 22.0601C46.4568 21.4554 45.8986 20.874 45.387 20.2693C44.4102 19.153 44.0148 17.8273 44.1544 16.3621C44.2474 15.2691 44.3637 14.1527 44.4567 13.2922H44.48ZM17.5717 48.0148C17.0833 47.3636 16.6879 46.8752 16.3158 46.3403C15.9437 45.8054 15.6181 45.2705 15.2693 44.7123C14.9204 44.1542 14.6181 43.5727 14.2925 42.9913C13.7576 42.0145 12.9203 41.4331 11.8505 41.2238C11.1761 41.0842 10.5016 40.968 9.85042 40.8052C9.45505 40.6889 9.24574 40.8052 9.03642 41.1773C7.82706 43.3169 6.57119 45.4565 5.33858 47.5962C5.24555 47.7357 5.17578 47.8985 5.05949 48.1311C5.29206 48.0846 5.45486 48.0381 5.5944 48.0148C7.45495 47.5264 9.31551 47.0147 11.1761 46.5264C12.0831 46.2938 12.4552 46.5264 12.711 47.4334C12.8273 47.8985 12.9668 48.3636 13.0831 48.8288C13.5018 50.3637 13.9204 51.8987 14.3623 53.5732C15.5251 51.5266 16.6182 49.6195 17.5485 48.0381L17.5717 48.0148ZM46.7359 48.1776C45.2939 45.6891 43.9683 43.3634 42.5961 41.0377C42.5264 40.8982 42.2473 40.8052 42.0845 40.8284C41.5263 40.8982 40.9914 41.0377 40.4333 41.1307C38.9448 41.3401 37.875 42.0843 37.2238 43.4564C37.0145 43.8983 36.7587 44.2937 36.5261 44.7123C35.8982 45.8752 35.2004 46.9682 34.0143 47.6659C35.1307 49.5963 36.247 51.5266 37.4099 53.5499C37.9913 51.387 38.5262 49.4102 39.0611 47.4334C39.3169 46.4333 39.6658 46.2473 40.6891 46.5031C40.9449 46.5729 41.2007 46.6426 41.4333 46.7124C43.1543 47.1775 44.8753 47.6427 46.7591 48.1543L46.7359 48.1776Z"/>
</mask>
<path d="M44.3172 40.1074C46.0382 43.0611 47.7359 45.9682 49.4104 48.8753C49.55 49.1079 49.6895 49.3404 49.7128 49.5963C49.829 50.3172 49.1313 50.8056 48.3406 50.5731C45.9684 49.9451 43.6194 49.3172 41.2472 48.666C41.1077 48.6195 40.9682 48.5962 40.7589 48.5497C40.5961 49.1776 40.41 49.7823 40.2472 50.387C39.7588 52.2476 39.2472 54.1081 38.7588 55.9687C38.6192 56.4803 38.4099 56.9454 37.8285 56.992C37.2471 57.0385 36.9912 56.6431 36.7354 56.2012C35.247 53.5965 33.7585 51.0149 32.2468 48.4334C32.1073 48.2008 31.8049 48.0148 31.5491 47.8985C30.8049 47.5962 30.0374 47.3636 29.2932 47.0613C28.642 46.8054 28.0141 46.4798 27.3629 46.2008C26.4093 45.7821 25.4558 45.7821 24.5023 46.2008C23.3859 46.6892 22.2929 47.3171 21.1068 47.6194C20.0835 47.8753 19.5485 48.4334 19.0602 49.3172C17.781 51.6429 16.4321 53.9221 15.1065 56.2245C14.8507 56.6664 14.5716 57.0617 13.9901 56.992C13.4087 56.9222 13.1994 56.4571 13.0599 55.9454C12.4087 53.5034 11.7575 51.0615 11.083 48.573C10.9202 48.5962 10.7574 48.5962 10.6179 48.6427C8.26895 49.2707 5.92 49.8986 3.57105 50.5265C3.08266 50.6661 2.64077 50.6893 2.31518 50.2707C1.94307 49.8288 2.08261 49.387 2.36169 48.9218C3.96642 46.1775 5.54789 43.4332 7.12936 40.6889C7.24564 40.5028 7.33867 40.3168 7.47821 40.0609C5.40835 38.9446 5.22229 37.084 5.45486 35.0607C5.54789 34.2932 5.61766 33.549 5.71069 32.7815C5.85023 31.6187 5.54789 30.5954 4.7339 29.7349C4.03619 29.0139 3.36174 28.2697 2.71054 27.5022C0.966277 25.3858 0.966277 23.595 2.71054 21.4787C3.33848 20.7112 4.01293 19.9902 4.68738 19.2925C5.5944 18.3622 5.85023 17.2692 5.68743 16.0133C5.54789 14.8737 5.40835 13.7341 5.38509 12.5945C5.33858 10.5479 6.29211 9.24552 8.24569 8.64084C9.43179 8.26873 10.6644 8.05942 11.8738 7.8036C12.9901 7.57103 13.8041 6.96635 14.3623 5.98956C14.9669 4.89648 15.5716 3.80341 16.2693 2.7801C17.2926 1.29166 18.7346 0.68698 20.5253 1.17538C21.0835 1.33817 21.6184 1.54749 22.1533 1.78005C22.8743 2.08239 23.5952 2.40799 24.293 2.73359C25.3395 3.22198 26.3861 3.22198 27.4326 2.73359C28.0373 2.45451 28.642 2.19868 29.2467 1.9196C29.549 1.78005 29.8746 1.64051 30.177 1.50097C32.7352 0.477668 34.3865 0.98932 35.8749 3.33827C36.4331 4.19877 36.9215 5.10579 37.4099 5.98956C37.9448 6.96635 38.7588 7.54777 39.8518 7.78034C41.0612 8.03616 42.2473 8.24548 43.4334 8.61759C45.5033 9.24552 46.4103 10.4781 46.3638 12.641C46.3638 13.8736 46.1777 15.1295 46.0614 16.3621C45.9451 17.432 46.2242 18.339 46.9452 19.1297C47.6894 19.9204 48.4336 20.7112 49.1081 21.5717C50.7593 23.6416 50.7593 25.3858 49.1081 27.4557C48.6429 28.0371 48.1778 28.6185 47.6196 29.1069C46.1777 30.3861 45.7823 31.9443 46.1545 33.8048C46.294 34.5258 46.3405 35.27 46.387 36.0142C46.5033 37.7585 45.9917 39.2004 44.2939 40.0842L44.3172 40.1074ZM44.48 13.2922C44.5497 11.3619 44.1776 10.8503 42.5264 10.4084C41.8519 10.2223 41.1542 10.0595 40.4565 9.96649C38.0611 9.64089 36.34 8.43153 35.2702 6.24538C34.8981 5.4779 34.433 4.73368 33.9446 4.03598C33.2236 2.98941 32.5957 2.80336 31.3863 3.22198C30.456 3.54758 29.5723 3.9662 28.6885 4.38483C26.7814 5.31511 24.9209 5.31511 23.0138 4.38483C22.1998 3.98946 21.3858 3.59409 20.5486 3.29175C19.1764 2.75685 18.4787 2.96616 17.6647 4.19877C17.1298 4.98951 16.6647 5.8035 16.2461 6.64075C15.2925 8.5013 13.8041 9.54786 11.7342 9.89672C10.7807 10.0595 9.82716 10.2456 8.92014 10.5014C7.64101 10.8735 7.24564 11.4317 7.2689 12.7341C7.2689 13.5481 7.33867 14.3853 7.47821 15.1993C7.87358 17.525 7.36193 19.5251 5.5944 21.1763C5.01298 21.7112 4.50133 22.3159 4.01293 22.9206C3.01288 24.1765 3.01288 24.9672 4.01293 26.1998C4.66413 26.9905 5.36183 27.7348 6.05954 28.479C7.22239 29.7349 7.73404 31.2 7.54798 32.8978C7.4317 34.0839 7.29216 35.2467 7.24564 36.4329C7.19913 37.6887 7.5945 38.1771 8.7806 38.5492C9.66436 38.8051 10.5714 39.0144 11.4784 39.1539C13.6878 39.5028 15.3158 40.5958 16.2926 42.6192C16.4786 42.9913 16.6879 43.3634 16.8973 43.7355C17.2229 44.2704 17.5485 44.8053 17.9206 45.2937C18.4555 46.0147 19.1997 46.2473 20.0602 45.9449C20.9905 45.5961 21.944 45.224 22.8278 44.7821C24.8279 43.782 26.7814 43.7588 28.7815 44.7821C29.5955 45.1775 30.4095 45.5728 31.27 45.8752C32.5259 46.3403 33.2236 46.131 33.9678 45.0147C34.4795 44.2704 34.9446 43.503 35.34 42.689C36.3633 40.5958 38.0378 39.5028 40.317 39.1539C41.2705 39.0144 42.2008 38.7585 43.1311 38.4795C43.9916 38.2236 44.4567 37.5724 44.4334 36.6654C44.3869 35.7351 44.3637 34.7816 44.2241 33.8513C43.8753 31.6187 44.3172 29.6651 46.0149 28.0604C46.6428 27.4557 47.2475 26.7812 47.7824 26.0835C48.6662 24.9439 48.6662 24.1765 47.8057 23.0369C47.5499 22.688 47.2708 22.3857 46.9917 22.0601C46.4568 21.4554 45.8986 20.874 45.387 20.2693C44.4102 19.153 44.0148 17.8273 44.1544 16.3621C44.2474 15.2691 44.3637 14.1527 44.4567 13.2922H44.48ZM17.5717 48.0148C17.0833 47.3636 16.6879 46.8752 16.3158 46.3403C15.9437 45.8054 15.6181 45.2705 15.2693 44.7123C14.9204 44.1542 14.6181 43.5727 14.2925 42.9913C13.7576 42.0145 12.9203 41.4331 11.8505 41.2238C11.1761 41.0842 10.5016 40.968 9.85042 40.8052C9.45505 40.6889 9.24574 40.8052 9.03642 41.1773C7.82706 43.3169 6.57119 45.4565 5.33858 47.5962C5.24555 47.7357 5.17578 47.8985 5.05949 48.1311C5.29206 48.0846 5.45486 48.0381 5.5944 48.0148C7.45495 47.5264 9.31551 47.0147 11.1761 46.5264C12.0831 46.2938 12.4552 46.5264 12.711 47.4334C12.8273 47.8985 12.9668 48.3636 13.0831 48.8288C13.5018 50.3637 13.9204 51.8987 14.3623 53.5732C15.5251 51.5266 16.6182 49.6195 17.5485 48.0381L17.5717 48.0148ZM46.7359 48.1776C45.2939 45.6891 43.9683 43.3634 42.5961 41.0377C42.5264 40.8982 42.2473 40.8052 42.0845 40.8284C41.5263 40.8982 40.9914 41.0377 40.4333 41.1307C38.9448 41.3401 37.875 42.0843 37.2238 43.4564C37.0145 43.8983 36.7587 44.2937 36.5261 44.7123C35.8982 45.8752 35.2004 46.9682 34.0143 47.6659C35.1307 49.5963 36.247 51.5266 37.4099 53.5499C37.9913 51.387 38.5262 49.4102 39.0611 47.4334C39.3169 46.4333 39.6658 46.2473 40.6891 46.5031C40.9449 46.5729 41.2007 46.6426 41.4333 46.7124C43.1543 47.1775 44.8753 47.6427 46.7591 48.1543L46.7359 48.1776Z" fill="#FF5C00"/>
<path d="M44.3172 40.1074C46.0382 43.0611 47.7359 45.9682 49.4104 48.8753C49.55 49.1079 49.6895 49.3404 49.7128 49.5963C49.829 50.3172 49.1313 50.8056 48.3406 50.5731C45.9684 49.9451 43.6194 49.3172 41.2472 48.666C41.1077 48.6195 40.9682 48.5962 40.7589 48.5497C40.5961 49.1776 40.41 49.7823 40.2472 50.387C39.7588 52.2476 39.2472 54.1081 38.7588 55.9687C38.6192 56.4803 38.4099 56.9454 37.8285 56.992C37.2471 57.0385 36.9912 56.6431 36.7354 56.2012C35.247 53.5965 33.7585 51.0149 32.2468 48.4334C32.1073 48.2008 31.8049 48.0148 31.5491 47.8985C30.8049 47.5962 30.0374 47.3636 29.2932 47.0613C28.642 46.8054 28.0141 46.4798 27.3629 46.2008C26.4093 45.7821 25.4558 45.7821 24.5023 46.2008C23.3859 46.6892 22.2929 47.3171 21.1068 47.6194C20.0835 47.8753 19.5485 48.4334 19.0602 49.3172C17.781 51.6429 16.4321 53.9221 15.1065 56.2245C14.8507 56.6664 14.5716 57.0617 13.9901 56.992C13.4087 56.9222 13.1994 56.4571 13.0599 55.9454C12.4087 53.5034 11.7575 51.0615 11.083 48.573C10.9202 48.5962 10.7574 48.5962 10.6179 48.6427C8.26895 49.2707 5.92 49.8986 3.57105 50.5265C3.08266 50.6661 2.64077 50.6893 2.31518 50.2707C1.94307 49.8288 2.08261 49.387 2.36169 48.9218C3.96642 46.1775 5.54789 43.4332 7.12936 40.6889C7.24564 40.5028 7.33867 40.3168 7.47821 40.0609C5.40835 38.9446 5.22229 37.084 5.45486 35.0607C5.54789 34.2932 5.61766 33.549 5.71069 32.7815C5.85023 31.6187 5.54789 30.5954 4.7339 29.7349C4.03619 29.0139 3.36174 28.2697 2.71054 27.5022C0.966277 25.3858 0.966277 23.595 2.71054 21.4787C3.33848 20.7112 4.01293 19.9902 4.68738 19.2925C5.5944 18.3622 5.85023 17.2692 5.68743 16.0133C5.54789 14.8737 5.40835 13.7341 5.38509 12.5945C5.33858 10.5479 6.29211 9.24552 8.24569 8.64084C9.43179 8.26873 10.6644 8.05942 11.8738 7.8036C12.9901 7.57103 13.8041 6.96635 14.3623 5.98956C14.9669 4.89648 15.5716 3.80341 16.2693 2.7801C17.2926 1.29166 18.7346 0.68698 20.5253 1.17538C21.0835 1.33817 21.6184 1.54749 22.1533 1.78005C22.8743 2.08239 23.5952 2.40799 24.293 2.73359C25.3395 3.22198 26.3861 3.22198 27.4326 2.73359C28.0373 2.45451 28.642 2.19868 29.2467 1.9196C29.549 1.78005 29.8746 1.64051 30.177 1.50097C32.7352 0.477668 34.3865 0.98932 35.8749 3.33827C36.4331 4.19877 36.9215 5.10579 37.4099 5.98956C37.9448 6.96635 38.7588 7.54777 39.8518 7.78034C41.0612 8.03616 42.2473 8.24548 43.4334 8.61759C45.5033 9.24552 46.4103 10.4781 46.3638 12.641C46.3638 13.8736 46.1777 15.1295 46.0614 16.3621C45.9451 17.432 46.2242 18.339 46.9452 19.1297C47.6894 19.9204 48.4336 20.7112 49.1081 21.5717C50.7593 23.6416 50.7593 25.3858 49.1081 27.4557C48.6429 28.0371 48.1778 28.6185 47.6196 29.1069C46.1777 30.3861 45.7823 31.9443 46.1545 33.8048C46.294 34.5258 46.3405 35.27 46.387 36.0142C46.5033 37.7585 45.9917 39.2004 44.2939 40.0842L44.3172 40.1074ZM44.48 13.2922C44.5497 11.3619 44.1776 10.8503 42.5264 10.4084C41.8519 10.2223 41.1542 10.0595 40.4565 9.96649C38.0611 9.64089 36.34 8.43153 35.2702 6.24538C34.8981 5.4779 34.433 4.73368 33.9446 4.03598C33.2236 2.98941 32.5957 2.80336 31.3863 3.22198C30.456 3.54758 29.5723 3.9662 28.6885 4.38483C26.7814 5.31511 24.9209 5.31511 23.0138 4.38483C22.1998 3.98946 21.3858 3.59409 20.5486 3.29175C19.1764 2.75685 18.4787 2.96616 17.6647 4.19877C17.1298 4.98951 16.6647 5.8035 16.2461 6.64075C15.2925 8.5013 13.8041 9.54786 11.7342 9.89672C10.7807 10.0595 9.82716 10.2456 8.92014 10.5014C7.64101 10.8735 7.24564 11.4317 7.2689 12.7341C7.2689 13.5481 7.33867 14.3853 7.47821 15.1993C7.87358 17.525 7.36193 19.5251 5.5944 21.1763C5.01298 21.7112 4.50133 22.3159 4.01293 22.9206C3.01288 24.1765 3.01288 24.9672 4.01293 26.1998C4.66413 26.9905 5.36183 27.7348 6.05954 28.479C7.22239 29.7349 7.73404 31.2 7.54798 32.8978C7.4317 34.0839 7.29216 35.2467 7.24564 36.4329C7.19913 37.6887 7.5945 38.1771 8.7806 38.5492C9.66436 38.8051 10.5714 39.0144 11.4784 39.1539C13.6878 39.5028 15.3158 40.5958 16.2926 42.6192C16.4786 42.9913 16.6879 43.3634 16.8973 43.7355C17.2229 44.2704 17.5485 44.8053 17.9206 45.2937C18.4555 46.0147 19.1997 46.2473 20.0602 45.9449C20.9905 45.5961 21.944 45.224 22.8278 44.7821C24.8279 43.782 26.7814 43.7588 28.7815 44.7821C29.5955 45.1775 30.4095 45.5728 31.27 45.8752C32.5259 46.3403 33.2236 46.131 33.9678 45.0147C34.4795 44.2704 34.9446 43.503 35.34 42.689C36.3633 40.5958 38.0378 39.5028 40.317 39.1539C41.2705 39.0144 42.2008 38.7585 43.1311 38.4795C43.9916 38.2236 44.4567 37.5724 44.4334 36.6654C44.3869 35.7351 44.3637 34.7816 44.2241 33.8513C43.8753 31.6187 44.3172 29.6651 46.0149 28.0604C46.6428 27.4557 47.2475 26.7812 47.7824 26.0835C48.6662 24.9439 48.6662 24.1765 47.8057 23.0369C47.5499 22.688 47.2708 22.3857 46.9917 22.0601C46.4568 21.4554 45.8986 20.874 45.387 20.2693C44.4102 19.153 44.0148 17.8273 44.1544 16.3621C44.2474 15.2691 44.3637 14.1527 44.4567 13.2922H44.48ZM17.5717 48.0148C17.0833 47.3636 16.6879 46.8752 16.3158 46.3403C15.9437 45.8054 15.6181 45.2705 15.2693 44.7123C14.9204 44.1542 14.6181 43.5727 14.2925 42.9913C13.7576 42.0145 12.9203 41.4331 11.8505 41.2238C11.1761 41.0842 10.5016 40.968 9.85042 40.8052C9.45505 40.6889 9.24574 40.8052 9.03642 41.1773C7.82706 43.3169 6.57119 45.4565 5.33858 47.5962C5.24555 47.7357 5.17578 47.8985 5.05949 48.1311C5.29206 48.0846 5.45486 48.0381 5.5944 48.0148C7.45495 47.5264 9.31551 47.0147 11.1761 46.5264C12.0831 46.2938 12.4552 46.5264 12.711 47.4334C12.8273 47.8985 12.9668 48.3636 13.0831 48.8288C13.5018 50.3637 13.9204 51.8987 14.3623 53.5732C15.5251 51.5266 16.6182 49.6195 17.5485 48.0381L17.5717 48.0148ZM46.7359 48.1776C45.2939 45.6891 43.9683 43.3634 42.5961 41.0377C42.5264 40.8982 42.2473 40.8052 42.0845 40.8284C41.5263 40.8982 40.9914 41.0377 40.4333 41.1307C38.9448 41.3401 37.875 42.0843 37.2238 43.4564C37.0145 43.8983 36.7587 44.2937 36.5261 44.7123C35.8982 45.8752 35.2004 46.9682 34.0143 47.6659C35.1307 49.5963 36.247 51.5266 37.4099 53.5499C37.9913 51.387 38.5262 49.4102 39.0611 47.4334C39.3169 46.4333 39.6658 46.2473 40.6891 46.5031C40.9449 46.5729 41.2007 46.6426 41.4333 46.7124C43.1543 47.1775 44.8753 47.6427 46.7591 48.1543L46.7359 48.1776Z" stroke="#FF5C00" mask="url(#path-1-outside-1_962_8089)"/>
<path d="M25.8521 39.8211H26.1021V39.7965C34.4055 39.6849 41.1492 32.8813 41.1726 24.5478C41.1963 16.1535 34.3401 9.25027 25.9226 9.22662L25.9219 9.47662L25.9226 9.22662C17.4818 9.20298 10.5784 16.0825 10.5782 24.5235C10.5547 32.9413 17.4114 39.8211 25.8521 39.8211ZM38.7423 24.5238C38.7423 31.6177 32.9712 37.3674 25.8524 37.3675C18.7572 37.3443 12.9857 31.5489 13.0085 24.4781C13.0313 17.3844 18.8253 11.6571 25.9216 11.6569C32.9702 11.68 38.7423 17.4523 38.7423 24.5238Z" fill="#FF5C00" stroke="#FF5C00" stroke-width="0.5"/>
<path d="M23.8642 28.1155L20.9827 25.2341C20.1447 24.3728 19.2833 23.5115 18.422 22.6734C18.1602 22.4121 17.8422 22.275 17.5197 22.2787C17.1986 22.2825 16.8973 22.4259 16.6691 22.6799C16.4395 22.9121 16.3254 23.2034 16.3367 23.509C16.3479 23.8112 16.4806 24.1072 16.7068 24.362C16.7629 24.4313 16.8233 24.4912 16.8771 24.542C16.9001 24.5636 16.9203 24.5824 16.939 24.5996C16.9696 24.6279 16.996 24.6523 17.0232 24.6794L22.6513 30.3076C23.0539 30.7102 23.4173 30.9913 23.8282 30.9913C24.239 30.9913 24.6024 30.7102 25.005 30.3076L25.0056 30.307C26.6332 28.6677 28.2667 27.0343 29.9006 25.4004L29.9014 25.3996C31.5325 23.7684 33.164 22.1369 34.7898 20.4996C34.9583 20.3544 35.1387 20.1752 35.2722 19.9621C35.4234 19.7279 35.5013 19.4717 35.4821 19.2108C35.4628 18.9483 35.3468 18.7044 35.151 18.4946L35.1511 18.4945L35.145 18.4884C34.9363 18.2797 34.688 18.1507 34.4177 18.1202C34.1478 18.0898 33.8776 18.1601 33.6285 18.3123L33.6285 18.3123L33.6264 18.3136C33.4494 18.4242 33.3038 18.5746 33.1779 18.7046C33.149 18.7345 33.1212 18.7632 33.0942 18.7902C30.0959 21.7653 27.1207 24.7405 24.1456 27.7388C24.0361 27.8351 23.9576 27.9542 23.8942 28.0629C23.8841 28.0802 23.8741 28.0978 23.8642 28.1155Z" fill="#FF5C00" stroke="#FF5C00" stroke-width="0.5"/>
</svg>
