<svg width="16" height="10" viewBox="0 0 16 10" fill="none" xmlns="http://www.w3.org/2000/svg">
<path d="M4.66504 4.43896C4.66504 4.87907 4.50423 5.25993 4.18262 5.58154C3.861 5.90316 3.48014 6.06396 3.04004 6.06396C2.59147 6.06396 2.20638 5.90316 1.88477 5.58154C1.56315 5.25993 1.40234 4.87907 1.40234 4.43896C1.40234 3.9777 1.56315 3.58838 1.88477 3.271C2.20638 2.95361 2.59147 2.79492 3.04004 2.79492C3.49707 2.79492 3.88216 2.95573 4.19531 3.27734C4.50846 3.59896 4.66504 3.98617 4.66504 4.43896ZM9.57812 4.43896C9.57812 4.87907 9.41732 5.25993 9.0957 5.58154C8.77409 5.90316 8.39323 6.06396 7.95312 6.06396C7.50456 6.06396 7.11947 5.90316 6.79785 5.58154C6.47624 5.25993 6.31543 4.87907 6.31543 4.43896C6.31543 3.9777 6.47624 3.58838 6.79785 3.271C7.11947 2.95361 7.50456 2.79492 7.95312 2.79492C8.41016 2.79492 8.79525 2.95573 9.1084 3.27734C9.42155 3.59896 9.57812 3.98617 9.57812 4.43896ZM14.4912 4.43896C14.4912 4.87907 14.3304 5.25993 14.0088 5.58154C13.6872 5.90316 13.3063 6.06396 12.8662 6.06396C12.4176 6.06396 12.0326 5.90316 11.7109 5.58154C11.3893 5.25993 11.2285 4.87907 11.2285 4.43896C11.2285 3.9777 11.3893 3.58838 11.7109 3.271C12.0326 2.95361 12.4176 2.79492 12.8662 2.79492C13.3232 2.79492 13.7083 2.95573 14.0215 3.27734C14.3346 3.59896 14.4912 3.98617 14.4912 4.43896Z" fill="#282827" fill-opacity="0.7"/>
</svg>
