<svg width="13" height="12" viewBox="0 0 13 12" fill="none" xmlns="http://www.w3.org/2000/svg">
<path d="M6.6691 11.6882L6.45848 11.449C6.13281 11.0792 5.69281 10.633 5.22699 10.1606C4.03162 8.94845 2.54396 7.4399 1.65861 5.90983C1.15827 5.04518 0.903793 4.27533 0.880586 3.55626C0.853402 2.71276 1.15633 1.95996 1.781 1.31877C2.37905 0.704934 3.16804 0.378562 4.00076 0.399406C4.83855 0.420484 5.61472 0.789457 6.18624 1.43836L6.66898 1.98642L7.15118 1.43846C7.72268 0.789574 8.49871 0.420601 9.33638 0.399406C10.1699 0.378234 10.9586 0.704793 11.5571 1.3187C12.1817 1.96001 12.4846 2.71283 12.4573 3.55638C12.4341 4.27544 12.1795 5.04532 11.6792 5.91C10.7938 7.44011 9.30623 8.94871 8.1109 10.1609C7.6452 10.6331 7.20531 11.0792 6.87969 11.449L6.6691 11.6882ZM2.18306 1.71046C1.2096 2.70963 1.19699 3.9913 2.14443 5.62873C2.9939 7.0968 4.45367 8.57707 5.62665 9.7665C6.00536 10.1505 6.3672 10.5175 6.66912 10.8448C6.97095 10.5175 7.3327 10.1507 7.71128 9.76678C8.88417 8.57733 10.3439 7.09701 11.1934 5.62889C12.1409 3.99139 12.1284 2.70965 11.1552 1.71044C10.6671 1.2098 10.0267 0.943601 9.35063 0.960515C8.67094 0.97771 8.03946 1.27917 7.57251 1.80935L6.66921 2.83581L5.76508 1.80935C5.29801 1.27905 4.66646 0.977593 3.98668 0.960492C3.31164 0.943601 2.6708 1.20992 2.18306 1.71046Z" fill="#282827"/>
</svg>
