<svg width="34" height="44" viewBox="0 0 34 44" fill="none" xmlns="http://www.w3.org/2000/svg">
<path d="M17.1387 0C8.041 0 0.638672 7.48273 0.638672 16.6792C0.638672 23.693 4.09697 30.3372 8.44865 35.7971C12.2508 40.5667 16.0119 43.5408 16.17 43.665C16.4548 43.8883 16.7967 44 17.1387 44C17.4806 44 17.8225 43.8883 18.1073 43.665C18.2654 43.5408 22.0266 40.5677 25.8287 35.7971C30.1832 30.3343 33.6387 23.6911 33.6387 16.6792C33.6387 7.48176 26.2363 0 17.1387 0ZM17.1387 24.1581C12.7851 24.1581 9.24393 20.5785 9.24393 16.1776C9.24393 11.7767 12.7851 8.19711 17.1387 8.19711C21.4923 8.19711 25.0334 11.7767 25.0334 16.1776C25.0334 20.5785 21.4923 24.1581 17.1387 24.1581Z" fill="#FF5C00"/>
</svg>
