<svg width="20" height="9" viewBox="0 0 20 9" fill="none" xmlns="http://www.w3.org/2000/svg">
<path d="M1.36719 4C1.09105 4 0.867187 4.22386 0.867188 4.5C0.867188 4.77614 1.09105 5 1.36719 5L1.36719 4ZM19.7207 4.85355C19.916 4.65829 19.916 4.34171 19.7207 4.14645L16.5388 0.964466C16.3435 0.769204 16.0269 0.769204 15.8317 0.964466C15.6364 1.15973 15.6364 1.47631 15.8317 1.67157L18.6601 4.5L15.8317 7.32843C15.6364 7.52369 15.6364 7.84027 15.8317 8.03553C16.0269 8.2308 16.3435 8.2308 16.5388 8.03553L19.7207 4.85355ZM1.36719 5L19.3672 5L19.3672 4L1.36719 4L1.36719 5Z" fill="#282827"/>
</svg>
