<svg width="44" height="44" viewBox="0 0 44 44" fill="none" xmlns="http://www.w3.org/2000/svg">
<path d="M29.9903 24.8327C29.6092 24.3752 29.1761 23.9652 28.7573 23.5687C28.6084 23.4277 28.4544 23.2819 28.3059 23.1369C27.8798 22.7203 27.8643 22.5638 28.2017 22.0905C28.4351 21.7643 28.6826 21.4376 28.922 21.1217C29.139 20.8351 29.3636 20.5387 29.5787 20.2414L29.6229 20.1802C30.0341 19.6112 30.4595 19.0228 30.6858 18.313C30.7446 18.1257 30.8063 17.8501 30.6652 17.6197C30.5242 17.3895 30.2506 17.3192 30.0571 17.2864C29.9613 17.2702 29.8663 17.268 29.7781 17.268L27.0849 17.266L27.0626 17.2658C26.6554 17.2658 26.381 17.4577 26.2237 17.8526C26.0736 18.2298 25.9087 18.6315 25.7205 19.0135C25.346 19.774 24.8704 20.6501 24.1822 21.3807L24.1531 21.4118C24.0718 21.4991 23.9797 21.598 23.9124 21.598C23.9021 21.598 23.8909 21.596 23.8782 21.592C23.7356 21.5365 23.6399 21.1914 23.6443 21.0309C23.6443 21.0287 23.6444 21.0264 23.6444 21.0242L23.6425 17.9114C23.6425 17.9006 23.6417 17.8899 23.6403 17.8792C23.5718 17.3732 23.4201 17.0582 22.8466 16.9459C22.8314 16.9429 22.8159 16.9414 22.8003 16.9414H19.9999C19.5437 16.9414 19.2923 17.1268 19.056 17.4044C18.9922 17.4786 18.8594 17.6331 18.9252 17.8204C18.992 18.0106 19.2087 18.0512 19.2793 18.0644C19.6297 18.1311 19.8272 18.3454 19.8831 18.7199C19.9808 19.3701 19.9928 20.0641 19.9209 20.904C19.9008 21.1374 19.8612 21.3177 19.7958 21.4717C19.7807 21.5076 19.7269 21.625 19.672 21.625C19.6545 21.625 19.6041 21.6182 19.5122 21.5549C19.295 21.406 19.136 21.1937 18.9508 20.9313C18.3204 20.0405 17.7913 19.0591 17.3332 17.9304C17.1632 17.5149 16.8459 17.2823 16.4392 17.2755C15.9923 17.2687 15.5871 17.2654 15.2007 17.2654C14.7784 17.2654 14.387 17.2693 14.0047 17.2773C13.6775 17.283 13.4512 17.3811 13.3321 17.569C13.2128 17.7571 13.2205 18.0041 13.3551 18.3031C14.4327 20.6986 15.4097 22.4404 16.5231 23.9509C17.3033 25.0078 18.0858 25.7394 18.9854 26.253C19.9333 26.7953 20.9955 27.0589 22.2327 27.0589C22.373 27.0589 22.518 27.0555 22.6642 27.0487C23.3831 27.0136 23.6499 26.7534 23.6836 26.0534C23.6996 25.6957 23.7388 25.3206 23.9146 25.0006C24.0256 24.799 24.1291 24.799 24.1631 24.799C24.2286 24.799 24.3099 24.8292 24.3971 24.8857C24.5536 24.9878 24.6878 25.1247 24.7978 25.2442C24.9013 25.3577 25.0037 25.4725 25.1061 25.5872C25.3273 25.8349 25.5559 26.091 25.7948 26.3338C26.3176 26.8658 26.8936 27.0997 27.5551 27.0489H30.0244C30.0296 27.0489 30.0349 27.0488 30.0402 27.0484C30.2862 27.0322 30.4993 26.8957 30.6248 26.674C30.7803 26.3993 30.7771 26.0489 30.6164 25.7364C30.4341 25.3831 30.1975 25.0812 29.9903 24.8327Z" fill="#282827"/>
<circle cx="22" cy="22" r="21.5" stroke="#282827"/>
</svg>
