<svg width="57" height="33" viewBox="0 0 57 33" fill="none" xmlns="http://www.w3.org/2000/svg">
<path d="M53.6676 25.3845C52.4623 23.9376 51.0926 22.6409 49.7679 21.3868C49.2969 20.9408 48.8099 20.4797 48.3404 20.0212C46.9926 18.7034 46.9436 18.2083 48.0107 16.7115C48.749 15.6797 49.5317 14.6466 50.2888 13.6474C50.9754 12.7409 51.6855 11.8035 52.366 10.863L52.5057 10.6696C53.8065 8.86989 55.1517 7.00888 55.8675 4.76387C56.0534 4.17157 56.2486 3.29996 55.8023 2.57113C55.3563 1.84291 54.4911 1.62074 53.879 1.51697C53.5762 1.46562 53.2756 1.45861 52.9966 1.45861L44.4784 1.45251L44.408 1.45191C43.1201 1.45191 42.2521 2.05883 41.7548 3.30758C41.2799 4.50071 40.7583 5.77125 40.1632 6.97932C38.9787 9.38493 37.4744 12.1557 35.2977 14.4665L35.2056 14.5648C34.9486 14.841 34.6574 15.1539 34.4445 15.1539C34.4119 15.1539 34.3764 15.1476 34.3362 15.135C33.8853 14.9593 33.5826 13.8678 33.5964 13.3601C33.5965 13.353 33.5967 13.346 33.5967 13.339L33.5907 3.49379C33.5907 3.45966 33.5883 3.42583 33.5839 3.392C33.3672 1.79156 32.8872 0.795301 31.0736 0.440104C31.0254 0.430504 30.9762 0.425781 30.9271 0.425781H22.0699C20.6269 0.425781 19.8318 1.01229 19.0843 1.89015C18.8826 2.12481 18.4626 2.61334 18.6708 3.20594C18.882 3.80739 19.5675 3.936 19.7908 3.97775C20.8989 4.18864 21.5235 4.86643 21.7004 6.05072C22.0093 8.10723 22.0472 10.3023 21.8199 12.9587C21.7565 13.697 21.6311 14.2672 21.4244 14.7543C21.3764 14.868 21.2062 15.239 21.0327 15.2392C20.9775 15.2392 20.818 15.2176 20.5274 15.0173C19.8403 14.5466 19.3376 13.8749 18.7516 13.0452C16.7578 10.2276 15.0845 7.12362 13.6354 3.55383C13.098 2.23971 12.0942 1.50402 10.8079 1.48238C9.39439 1.46089 8.11287 1.45053 6.89064 1.45053C5.55518 1.45053 4.3171 1.46288 3.10812 1.48802C2.07316 1.5063 1.35728 1.81655 0.980599 2.41083C0.603307 3.00557 0.627841 3.78682 1.05359 4.73248C4.46171 12.3092 7.55181 17.8182 11.0733 22.5956C13.5408 25.9385 16.0157 28.2524 18.8613 29.8769C21.8592 31.592 25.2188 32.4258 29.1319 32.4258C29.5755 32.4258 30.0342 32.415 30.4967 32.3933C32.7705 32.2825 33.614 31.4595 33.7207 29.2456C33.7714 28.1142 33.8952 26.9276 34.4514 25.9157C34.8024 25.2781 35.1298 25.2781 35.2373 25.2781C35.4446 25.2781 35.7015 25.3735 35.9774 25.5522C36.4724 25.8753 36.8967 26.308 37.2446 26.6861C37.5721 27.0453 37.8959 27.4081 38.22 27.771C38.9194 28.5544 39.6426 29.3643 40.3981 30.1325C42.0517 31.8149 43.8734 32.5548 45.9658 32.3942H53.7755C53.7921 32.3942 53.8089 32.3936 53.8255 32.3926C54.6037 32.3412 55.2777 31.9095 55.6746 31.2083C56.1664 30.3396 56.1564 29.2313 55.6481 28.243C55.0714 27.1254 54.3232 26.1706 53.6676 25.3845Z" fill="#282827"/>
</svg>
