<svg width="45" height="44" viewBox="0 0 45 44" fill="none" xmlns="http://www.w3.org/2000/svg">
<path d="M22.7084 15.082C19.0622 15.082 16.1055 18.0387 16.1055 21.685C16.1055 23.2493 16.6522 24.6863 17.5626 25.8177L16.4201 28.9172L19.7606 27.5873C20.6488 28.0313 21.6485 28.288 22.7084 28.288C26.3547 28.288 29.3114 25.3312 29.3114 21.685C29.3114 18.0387 26.3547 15.082 22.7084 15.082ZM26.5064 25.1549C26.0869 25.6213 25.4264 25.8779 24.7882 25.8869C23.9625 25.898 23.1681 25.5588 22.4607 25.1326C21.1799 24.3605 20.0864 23.276 19.3032 22.0019C18.8457 21.2565 18.4865 20.413 18.5266 19.5383C18.5512 18.9983 18.7565 18.4583 19.1157 18.0521C19.2943 17.8513 19.5129 17.6839 19.7606 17.5791C20.0842 17.4429 20.3074 17.5523 20.5461 17.7911C20.7693 18.0142 20.9924 18.2351 21.2178 18.4583C21.2981 18.5386 21.3807 18.6212 21.4231 18.7283C21.49 18.9001 21.432 19.0965 21.3405 19.2571C21.2022 19.5026 20.988 19.7034 20.7336 19.8239C20.5082 19.931 20.2181 20.0136 20.1534 20.2546C20.1065 20.4287 20.2047 20.605 20.3029 20.7545C21.1709 22.0911 22.3246 23.2426 23.6635 24.1106C23.8197 24.211 24.0072 24.3137 24.1834 24.2512C24.3954 24.1776 24.4624 23.9232 24.5539 23.7179C24.6922 23.4099 24.9466 23.1555 25.2546 23.0194C25.3706 22.9681 25.4978 22.9346 25.6205 22.9636C25.7432 22.9949 25.8414 23.0864 25.9329 23.1756C26.1516 23.3876 26.3681 23.5996 26.5867 23.8094C26.7117 23.9299 26.8411 24.0593 26.8813 24.2267C26.9572 24.5569 26.7117 24.9273 26.5064 25.1549Z" fill="#282827"/>
<circle cx="22.709" cy="22" r="21.5" stroke="#282827"/>
</svg>
