<svg width="32" height="33" viewBox="0 0 32 33" fill="none" xmlns="http://www.w3.org/2000/svg">
<path d="M15.7449 0.425781C7.31137 0.425781 0.472656 7.26449 0.472656 15.698C0.472656 19.3161 1.73717 22.64 3.84298 25.2567L1.2004 32.4258L8.92685 29.3497C10.981 30.3767 13.2933 30.9703 15.7449 30.9703C24.1785 30.9703 31.0172 24.1316 31.0172 15.698C31.0172 7.26449 24.1785 0.425781 15.7449 0.425781ZM24.5294 23.7238C23.5591 24.8026 22.0314 25.3961 20.5552 25.4167C18.6456 25.4426 16.8081 24.658 15.172 23.6722C12.2094 21.8864 9.6804 19.378 7.86879 16.4309C6.81072 14.7071 5.97975 12.7561 6.07266 10.7329C6.12943 9.48385 6.60427 8.23481 7.43524 7.29546C7.84814 6.83094 8.35395 6.44385 8.92685 6.20126C9.67524 5.88643 10.1914 6.13933 10.7436 6.69159C11.2598 7.20772 11.7759 7.71868 12.2972 8.23481C12.483 8.42062 12.6739 8.61159 12.772 8.85933C12.9269 9.25675 12.7927 9.71094 12.581 10.0826C12.261 10.6503 11.7656 11.1148 11.1772 11.3935C10.6559 11.6413 9.98491 11.8322 9.83524 12.3897C9.72685 12.7922 9.95395 13.2 10.181 13.5458C12.1888 16.6374 14.8572 19.3006 17.9539 21.3084C18.3152 21.5406 18.7488 21.778 19.1565 21.6335C19.6469 21.4632 19.8017 20.8748 20.0133 20.4C20.3333 19.6877 20.9217 19.0993 21.6339 18.7845C21.9023 18.6658 22.1965 18.5884 22.4804 18.6555C22.7643 18.7277 22.9914 18.9393 23.203 19.1458C23.7088 19.6361 24.2094 20.1264 24.7152 20.6116C25.0043 20.8903 25.3036 21.1897 25.3965 21.5767C25.572 22.3406 25.0043 23.1974 24.5294 23.7238Z" fill="#282827"/>
</svg>
